<svg class="icon" viewBox="0 0 1024 1024" xmlns="http://www.w3.org/2000/svg" width="128" height="128">
  <defs/>
  <path d="M517.12 5.76a22.4 22.4 0 00-28.8 0L128 198.4a35.2 35.2 0 00-12.8 27.52A38.4 38.4 0 00132.48 256l142.08 92.16a17.28 17.28 0 007.68 4.48h10.24l-4.48 9.6a261.12 261.12 0 00-21.76 103.04A240 240 0 00512 710.4a227.2 227.2 0 0097.92-21.76h7.68a333.44 333.44 0 01220.8 267.52v10.88H181.12v-10.88A335.36 335.36 0 01320 725.76a32.64 32.64 0 008.96-43.52 23.68 23.68 0 00-19.2-11.52 50.56 50.56 0 00-24.96 4.48 384 384 0 00-169.6 320v28.8H896v-28.8a392.96 392.96 0 00-208.64-345.6l-11.52-5.76 8.96-8.96a256 256 0 0068.48-173.44 249.6 249.6 0 00-22.4-103.68l-3.84-7.68L873.6 256a37.76 37.76 0 0012.8-27.52 35.84 35.84 0 00-13.44-27.52zM512 653.44a187.52 187.52 0 01-185.6-184.96A188.16 188.16 0 01512 282.88a185.6 185.6 0 010 370.56zm181.12-353.92l-5.12-5.76a245.12 245.12 0 00-176-74.88 239.36 239.36 0 00-183.04 82.56l-8.96 8.32-7.68-8.32a8.32 8.32 0 00-4.48-3.84l-100.48-64L512 76.16l291.84 156.8z" />
  <path d="M858.88 192a30.08 30.08 0 00-28.16 27.52v267.52h-3.2a44.16 44.16 0 00-17.28 35.84 48.64 48.64 0 1096.64 0 44.16 44.16 0 00-17.28-35.84h-3.2V220.8a30.08 30.08 0 00-27.52-28.8z" />
</svg>