<?xml version="1.0" standalone="no"?><!DOCTYPE svg PUBLIC "-//W3C//DTD SVG 1.1//EN" "http://www.w3.org/Graphics/SVG/1.1/DTD/svg11.dtd"><svg t="1618355892930" class="icon" viewBox="0 0 1024 1024" version="1.1" xmlns="http://www.w3.org/2000/svg" p-id="1619" xmlns:xlink="http://www.w3.org/1999/xlink" width="128" height="128"><defs><style type="text/css"></style></defs><path d="M448 794.496 242.752 557.248 301.248 498.752 448 613.504 722.752 370.752 781.248 429.248zM831.776 128c0.064 0.064 0.16 0.16 0.224 0.224l0 767.552c-0.064 0.064-0.16 0.16-0.224 0.224L192.224 896c-0.096-0.064-0.16-0.16-0.224-0.224L192 128.224c0.064-0.096 0.16-0.16 0.224-0.224L64 128l0 768c0 70.4 57.6 128 128 128l640 0c70.4 0 128-57.6 128-128L960 128 831.776 128zM640 128 640 64c0-35.36-28.64-64-64-64l-128 0c-35.36 0-64 28.64-64 64l0 64-128 0 0 128 512 0L768 128 640 128zM576 128l-128 0L448 64l128 0L576 128z" p-id="1620" fill="#1296db"></path></svg>