<?xml version="1.0" standalone="no"?><!DOCTYPE svg PUBLIC "-//W3C//DTD SVG 1.1//EN" "http://www.w3.org/Graphics/SVG/1.1/DTD/svg11.dtd"><svg t="1618311077485" class="icon" viewBox="0 0 1024 1024" version="1.1" xmlns="http://www.w3.org/2000/svg" p-id="14488" width="128" height="128" xmlns:xlink="http://www.w3.org/1999/xlink"><defs><style type="text/css"></style></defs><path d="M740.224 635.776a373.9392 373.9392 0 0 0-125.44-87.04 190.464 190.464 0 0 1-110.08 64.128l0.128 0.128-17.792 17.792 17.664 53.888-35.712 188.928-35.712-188.928 17.664-53.888-17.792-17.792 0.128-0.128c-43.776-8.32-82.304-31.36-110.08-64.128a374.592 374.592 0 0 0-125.568 87.296 128.128 128.128 0 0 0-35.328 88.32v107.776a61.184 61.184 0 0 0 61.184 61.184h490.624a61.184 61.184 0 0 0 61.184-61.184v-107.904c0.384-33.024-12.416-64.64-35.072-88.448z" p-id="14489" fill="#0b988f"></path><path d="M200.064 262.656l89.472 36.352v46.976c0 22.144 12.288 42.24 32 52.224 0.896 0.512 2.176 1.024 3.072 1.536v26.24c0 79.744 64.64 144.512 144.512 144.512s144.512-64.64 144.512-144.512v-26.24c1.024-0.512 2.176-1.024 3.072-1.536 19.712-9.984 32-30.08 32-52.224v-46.976l89.472-36.352c13.696-5.504 13.696-24.832 0-30.464L507.52 138.24a101.888 101.888 0 0 0-76.672 0l-230.784 93.952c-13.568 5.632-13.568 24.96 0 30.464z m414.464 83.328c0 9.216-5.12 17.536-13.312 21.76-25.344 12.928-76.288 34.688-132.096 34.688s-106.624-21.76-132.096-34.688c-8.192-4.096-13.312-12.544-13.312-21.632v-33.024l107.008 43.648c24.576 9.984 52.096 9.984 76.672 0L614.4 313.088v32.896z" p-id="14490" fill="#0b988f"></path></svg>